Coordinates
version=1
nRows=15
nColumns=34
inDegrees=yes

Units are S.I. units (second, meters, Newtons, ...)
If the header above contains a line with 'inDegrees', this indicates whether rotational values are in degrees (yes) or radians (no).

endheader
time	pelvis_tilt	pelvis_list	pelvis_rotation	pelvis_tx	pelvis_ty	pelvis_tz	hip_flexion_r	hip_adduction_r	hip_rotation_r	knee_angle_r	ankle_angle_r	subtalar_angle_r	mtp_angle_r	hip_flexion_l	hip_adduction_l	hip_rotation_l	knee_angle_l	ankle_angle_l	subtalar_angle_l	mtp_angle_l	lumbar_extension	lumbar_bending	lumbar_rotation	arm_flex_r	arm_add_r	arm_rot_r	elbow_flex_r	pro_sup_r	arm_flex_l	arm_add_l	arm_rot_l	elbow_flex_l	pro_sup_l
      0.00000000	      1.17704910	      0.17751681	      5.75616334	      0.32678967	      1.61498990	     -0.13330013	     -4.77643075	     -0.24898612	     -1.69225346	      2.01622217	      2.23469806	    -13.05739316	      0.00000000	     -2.81370120	      0.77855487	      0.89296510	      4.86362364	     -0.26735181	    -11.91210698	      0.00000000	     -9.56716786	      3.03821983	     -3.61686891	      1.54603622	     -9.97307670	     -2.75803806	     23.97840930	     79.01186209	     11.93373632	    -19.21938314	    -15.38861230	     61.02751462	     88.60875860
      0.01666670	     -1.31340144	     -0.58616235	      6.22785539	      0.32834197	      1.60851774	     -0.13458695	     -2.73436487	      0.56905957	     -1.29472749	      0.79993386	      1.35849873	    -10.63950377	      0.00000000	     -0.57525116	      0.47729594	      1.13134221	      3.52501662	     -1.85173842	     -9.77320124	      0.00000000	     -5.47042756	      3.98272034	     -4.47360166	      0.45347894	     -9.69180935	     -4.06429151	     23.83125681	     79.09700079	     11.97723090	    -17.59910899	    -19.70958712	     56.75424904	     87.16767307
      0.03333330	     -2.30183299	     -0.51786998	      6.35467421	      0.32838081	      1.60773823	     -0.13423736	     -2.11313629	      0.56367647	     -1.90621755	      0.00000000	      1.35412208	    -10.13865699	      0.00000000	      0.48393221	      0.77686895	      0.66691558	      3.38075952	     -1.70168191	     -8.17240673	      0.00000000	     -4.41992449	      3.43664923	     -4.83213112	     -0.00062380	     -9.33076443	     -4.55744180	     23.48273225	     79.11612400	     11.02562221	    -18.00510444	    -18.41892425	     57.68168012	     86.31720474
      0.05000000	     -2.46179727	     -0.36041748	      6.17391739	      0.32802432	      1.60639705	     -0.13368894	     -1.81543005	      0.42082383	     -2.35731885	      0.00000000	      2.08186717	     -9.04970562	      0.00000000	      0.09683372	      1.01271621	      0.46953009	      2.37041870	     -1.60556143	     -7.17288686	      0.00000000	     -4.60816401	      2.95833311	     -4.51490466	     -0.32347677	     -8.83522246	     -6.16527091	     23.30723981	     77.94782034	     11.04646475	    -18.46770417	    -15.09430464	     57.63855864	     79.78444507
      0.06666670	     -2.65461734	     -0.42518882	      6.05664052	      0.32165601	      1.60293918	     -0.13107266	     -1.40562735	      0.56069916	     -2.04127496	      0.00000000	      2.72854978	     -9.36929723	      0.00000000	      0.34789610	      1.01047685	      0.74910589	      2.26132878	     -1.03853131	     -7.22017702	      0.00000000	     -4.77757343	      2.99835315	     -4.85351707	      0.01050764	     -8.39421520	     -6.09316409	     23.78515083	     77.88016499	     10.36751091	    -18.04801344	    -14.54983225	     57.27873327	     79.64769383
      0.08333330	     -2.85445657	     -0.49284628	      6.20249177	      0.32785534	      1.60029925	     -0.13382262	     -1.22404440	      0.65076258	     -1.98050234	      0.00000000	      2.87024461	     -9.87045008	      0.00000000	      0.49420238	      0.95021278	      1.00842915	      2.15425803	     -0.50525150	     -7.04565757	      0.00000000	     -4.49761159	      3.00052198	     -5.28205346	     -0.07326387	     -8.01300819	     -6.26723186	     24.77788066	     77.61299206	      8.50324872	    -17.49773514	    -13.44363330	     56.78826763	     79.45023626
      0.10000000	     -2.80374747	     -0.40753825	      6.20705819	      0.32756837	      1.60208686	     -0.13383299	     -1.31006007	      0.55744928	     -1.94434076	      0.00000000	      3.22192492	    -10.06302361	      0.00000000	      0.37623355	      1.04632145	      1.31245937	      2.07547805	      0.04585141	     -7.09120344	      0.00000000	     -4.57111393	      2.76655407	     -5.20568696	     -0.00539728	     -7.73537141	     -6.29481817	     25.05024476	     77.54817972	      7.32593331	    -16.47668578	    -12.95766654	     56.22443428	     79.43778570
      0.11666670	     -3.02996287	     -0.39370910	      6.39278489	      0.32710375	      1.60390084	     -0.13388587	     -1.12504426	      0.54076580	     -2.00932906	      0.00000000	      3.29459283	    -10.41446709	      0.00000000	      0.64736812	      1.05933891	      1.70364008	      2.14861372	      0.51678138	     -6.76630406	      0.00000000	     -4.19431674	      2.73020137	     -5.44632738	     -0.27207190	     -7.42392896	     -6.78431090	     26.24660851	     77.00345831	      6.31050451	    -15.69503928	    -11.72172199	     53.04826398	     79.42696975
      0.13333330	     -2.90792257	     -0.36713184	      6.12903568	      0.32680713	      1.60143680	     -0.13357442	     -1.29565089	      0.50341788	     -1.74892299	      0.00000000	      3.53929525	    -10.47570360	      0.00000000	      0.45305320	      1.06515147	      1.65036081	      2.16127172	      0.77166154	     -6.98663257	      0.00000000	     -4.41789174	      2.69758116	     -5.43787771	     -0.11490669	     -7.29323364	     -6.84747097	     26.59779630	     76.90818288	      4.72980713	    -14.89006202	    -11.06115343	     51.51706932	     79.51424345
      0.15000000	     -3.11932460	     -0.32380259	      6.18950177	      0.32670066	      1.59877826	     -0.13350426	     -1.05408470	      0.44220697	     -1.68881695	      0.00000000	      3.65543958	    -10.66577635	      0.00000000	      0.71954532	      1.10329414	      1.86536579	      2.27774128	      0.84824934	     -7.14880458	      0.00000000	     -3.90819063	      2.56230505	     -4.74910833	     -0.74959934	     -7.31384251	     -6.77386587	     27.13093724	     76.50143341	      4.93074273	    -14.02044591	     -8.61774793	     47.31871088	     80.26464566
      0.16666670	     -2.96169359	     -0.22299558	      6.12040531	      0.32696866	      1.60081450	     -0.13328711	     -1.26667762	      0.34612327	     -1.67872894	      0.00000000	      3.60004209	    -10.72419342	      0.00000000	      0.46502975	      1.15493837	      1.95162175	      2.20966867	      0.92833295	     -7.21244542	      0.00000000	     -4.08815307	      2.39792241	     -4.88596155	     -0.91528896	     -7.16200544	     -6.78693985	     27.39173743	     76.45698259	      3.12427919	    -13.36562983	     -8.01178542	     46.01064301	     80.42396059
      0.18333330	     -3.07736946	     -0.18392977	      6.16735616	      0.32647878	      1.59894491	     -0.13328806	     -1.12715125	      0.30349561	     -1.54318076	      0.00000000	      3.73856326	    -10.95015136	      0.00000000	      0.65159783	      1.19939156	      2.15147825	      2.28855296	      0.98065474	     -7.28564685	      0.00000000	     -3.81680306	      2.27366248	     -4.63518567	     -1.26800358	     -7.25549292	     -6.45125832	     27.78531815	     76.40875891	      3.06240802	    -12.74496150	     -5.99763785	     42.41218451	     81.51415046
      0.20000000	     -3.00755172	     -0.11723534	      6.25607167	      0.32651087	      1.60086628	     -0.13318816	     -1.21351439	      0.27034523	     -1.49392096	      0.00000000	      3.81883027	    -11.01917813	      0.00000000	      0.56487559	      1.23680931	      2.31005443	      2.18199517	      0.98619134	     -7.09038439	      0.00000000	     -4.01184249	      2.06809681	     -5.08839912	     -1.20045383	     -7.05048786	     -6.38203194	     28.07772096	     76.41008280	      2.13913830	    -12.32068590	     -5.33014804	     40.97496801	     81.82764083
      0.21666670	     -3.12585019	     -0.14535245	      6.25670478	      0.32630891	      1.59895590	     -0.13317887	     -1.07046697	      0.29430831	     -1.42350810	      0.00000000	      3.95124285	    -11.06216780	      0.00000000	      0.72702408	      1.21736074	      2.41270994	      2.19428356	      1.21079911	     -6.95808559	      0.00000000	     -3.79869115	      1.94888596	     -4.47800201	     -1.58840850	     -7.28903707	     -5.88521440	     28.23865647	     76.68614597	      2.11259356	    -11.71731516	     -3.47512041	     37.93075654	     82.99275843
      0.23333330	     -3.03360114	     -0.11563003	      6.22062170	      0.32672606	      1.59661328	     -0.13313325	     -1.16199988	      0.27827511	     -1.32705363	      0.00000000	      3.97313795	    -11.08541098	      0.00000000	      0.64870604	      1.23896383	      2.43281006	      2.20680415	      1.30392107	     -7.03115690	      0.00000000	     -3.96192577	      1.71791188	     -4.66401509	     -1.55253933	     -7.28438136	     -5.90630528	     28.39219434	     76.69685295	      1.35965178	    -11.15331282	     -3.10783184	     37.40690732	     83.11297810
